<svg xmlns="http://www.w3.org/2000/svg" id="telephone_1_" width="31.942" height="31.943" data-name="telephone (1)" viewBox="0 0 31.942 31.943">
    <defs>
        <style>
            .cls-1{fill:#fff}
        </style>
    </defs>
    <g id="Group_5748" data-name="Group 5748">
        <path id="Path_3265" d="M24.291 64.2a2.238 2.238 0 0 0-3.383 0c-.791.784-1.582 1.569-2.36 2.366a.466.466 0 0 1-.651.12c-.512-.279-1.057-.505-1.549-.811a24.539 24.539 0 0 1-5.916-5.384 14.016 14.016 0 0 1-2.12-3.4.487.487 0 0 1 .12-.625c.791-.764 1.562-1.549 2.34-2.333a2.247 2.247 0 0 0-.007-3.463c-.618-.625-1.236-1.236-1.855-1.861-.639-.633-1.27-1.278-1.91-1.909a2.252 2.252 0 0 0-3.383.007c-.8.784-1.562 1.589-2.373 2.36a3.852 3.852 0 0 0-1.21 2.6A11.011 11.011 0 0 0 .88 56.6a28.8 28.8 0 0 0 5.112 8.515 31.632 31.632 0 0 0 10.476 8.2A15.151 15.151 0 0 0 22.27 75a4.253 4.253 0 0 0 3.649-1.389c.678-.758 1.442-1.449 2.16-2.174A2.261 2.261 0 0 0 28.093 68q-1.893-1.907-3.802-3.8z" class="cls-1" data-name="Path 3265" transform="translate(-.006 -43.071)"/>
        <path id="Path_3266" d="M245.059 105.452l2.453-.419A11.01 11.01 0 0 0 238.2 96l-.346 2.466a8.509 8.509 0 0 1 7.205 6.986z" class="cls-1" data-name="Path 3266" transform="translate(-222.044 -89.619)"/>
        <path id="Path_3267" d="M253.469 5.171A18.086 18.086 0 0 0 243.1 0l-.346 2.466a15.781 15.781 0 0 1 13.354 12.942l2.453-.419a18.218 18.218 0 0 0-5.092-9.818z" class="cls-1" data-name="Path 3267" transform="translate(-226.618)"/>
    </g>
</svg>
