<svg xmlns="http://www.w3.org/2000/svg" width="19.35" height="24.175" viewBox="0 0 19.35 24.175">
    <defs>
        <style>
            .cls-1{fill:#31302e}
        </style>
    </defs>
    <g id="shopping-bag" transform="translate(-48.8)">
        <path id="Path_3" d="M68.145 20.9L66.761 5.31a.666.666 0 0 0-.661-.61h-2.85a4.776 4.776 0 0 0-9.551 0h-2.847a.663.663 0 0 0-.662.608L48.8 20.9v.059a3.445 3.445 0 0 0 3.629 3.218h12.092a3.445 3.445 0 0 0 3.629-3.218.241.241 0 0 0-.005-.059zm-9.67-19.565A3.444 3.444 0 0 1 61.916 4.7h-6.882a3.444 3.444 0 0 1 3.441-3.365zm6.046 21.505H52.429a2.13 2.13 0 0 1-2.294-1.854L51.46 6.041h2.235v2.027a.667.667 0 0 0 1.335 0V6.041h6.887v2.027a.667.667 0 1 0 1.335 0V6.041h2.235l1.33 14.945a2.133 2.133 0 0 1-2.296 1.854z" class="cls-1" data-name="Path 3"/>
    </g>
</svg>
