<svg xmlns="http://www.w3.org/2000/svg" width="42.752" height="42.753" viewBox="0 0 42.752 42.753">
    <defs>
        <style>
            .cls-1{fill:#505050}.cls-2{fill:#fff}
        </style>
    </defs>
    <g id="email">
        <path id="Rectangle_970" d="M0 0h28.65v25.229H0z" class="cls-1" data-name="Rectangle 970" transform="translate(7.19 6.506)"/>
        <g id="Group_5577" data-name="Group 5577">
            <path id="Path_3165" d="M21.377 0a21.376 21.376 0 1 0 21.376 21.376A21.376 21.376 0 0 0 21.377 0zm0 7.508l12.65 7.892H8.728zm12.808 20.484a2.29 2.29 0 0 1-2.29 2.29H10.862a2.29 2.29 0 0 1-2.29-2.29V15.9a2.278 2.278 0 0 1 .036-.392l12.086 7.536c.015.009.031.016.046.024l.048.026a1.268 1.268 0 0 0 .263.1l.028.006a1.3 1.3 0 0 0 .3.038 1.28 1.28 0 0 0 .3-.038l.028-.006a1.281 1.281 0 0 0 .263-.1l.048-.026c.015-.009.031-.015.046-.024l12.086-7.536a2.276 2.276 0 0 1 .036.392v12.092z" class="cls-2" data-name="Path 3165" transform="translate(-.001)"/>
        </g>
    </g>
</svg>
