<svg xmlns="http://www.w3.org/2000/svg" id="facebook_4_" width="9.953" height="19.704" data-name="facebook (4)" viewBox="0 0 9.953 19.704">
    <defs>
        <style>
            .cls-1{fill:#969cae}
        </style>
    </defs>
    <path id="XMLID_835_" d="M77.021 10.494h2.16v8.892a.318.318 0 0 0 .318.318h3.662a.318.318 0 0 0 .318-.318v-8.85h2.483a.318.318 0 0 0 .316-.282l.377-3.274a.318.318 0 0 0-.316-.354h-2.86V4.575c0-.619.333-.932.99-.932h1.87a.318.318 0 0 0 .318-.318v-3A.318.318 0 0 0 86.339 0h-2.695a4.938 4.938 0 0 0-3.229 1.217 3.386 3.386 0 0 0-1.126 3.01v2.4h-2.268a.318.318 0 0 0-.318.318v3.232a.318.318 0 0 0 .318.317z" class="cls-1" transform="translate(-76.703)"/>
</svg>
