<svg xmlns="http://www.w3.org/2000/svg" width="19.342" height="19.342" viewBox="0 0 19.342 19.342">
    <defs>
        <style>
            .cls-1{fill:#969cae}
        </style>
    </defs>
    <g id="instagram_1_" data-name="instagram (1)">
        <g id="Group_4" data-name="Group 4">
            <g id="Group_3" data-name="Group 3">
                <path id="Path_2" d="M13.3 0H6.044A6.045 6.045 0 0 0 0 6.044V13.3a6.045 6.045 0 0 0 6.044 6.044H13.3a6.045 6.045 0 0 0 6.042-6.044V6.044A6.045 6.045 0 0 0 13.3 0zm4.231 13.3a4.236 4.236 0 0 1-4.231 4.228H6.044A4.236 4.236 0 0 1 1.813 13.3V6.044a4.236 4.236 0 0 1 4.231-4.231H13.3a4.236 4.236 0 0 1 4.231 4.231z" class="cls-1" data-name="Path 2"/>
            </g>
        </g>
        <g id="Group_6" data-name="Group 6" transform="translate(4.835 4.835)">
            <g id="Group_5" data-name="Group 5">
                <path id="Path_3" d="M132.835 128a4.835 4.835 0 1 0 4.835 4.835 4.836 4.836 0 0 0-4.835-4.835zm0 7.858a3.022 3.022 0 1 1 3.022-3.022 3.026 3.026 0 0 1-3.022 3.022z" class="cls-1" data-name="Path 3" transform="translate(-128 -128)"/>
            </g>
        </g>
        <g id="Group_8" data-name="Group 8" transform="translate(14.225 3.828)">
            <g id="Group_7" data-name="Group 7">
                <circle id="Ellipse_1" cx=".644" cy=".644" r=".644" class="cls-1" data-name="Ellipse 1"/>
            </g>
        </g>
    </g>
</svg>
