<svg xmlns="http://www.w3.org/2000/svg" width="21.49" height="19.771" viewBox="0 0 21.49 19.771">
    <defs>
        <style>
            .cls-1{fill:#ff4141}
        </style>
    </defs>
    <path id="like" d="M10.681 5.493A5.621 5.621 0 0 1 15.834 2c3.1 0 5.34 2.656 5.622 5.821a5.793 5.793 0 0 1-.182 2.2 9.728 9.728 0 0 1-2.965 4.944l-7.628 6.806-7.5-6.806a9.726 9.726 0 0 1-2.964-4.944 5.793 5.793 0 0 1-.182-2.2C.315 4.656 2.551 2 5.656 2a5.446 5.446 0 0 1 5.025 3.493z" class="cls-1" transform="translate(0 -2)"/>
</svg>
