<?xml version="1.0" encoding="utf-8"?>
<!-- Generator: Adobe Illustrator 17.0.0, SVG Export Plug-In . SVG Version: 6.00 Build 0)  -->
<!DOCTYPE svg PUBLIC "-//W3C//DTD SVG 1.1//EN" "http://www.w3.org/Graphics/SVG/1.1/DTD/svg11.dtd">
<svg version="1.1" id="Layer_1" xmlns="http://www.w3.org/2000/svg" xmlns:xlink="http://www.w3.org/1999/xlink" x="0px" y="0px"
	 width="22.204px" height="20.658px" viewBox="0 0 22.204 20.658" enable-background="new 0 0 22.204 20.658" xml:space="preserve">
<path d="M11.034,20.658l-7.723-7.01c-1.524-1.363-2.587-3.136-3.072-5.125C0.027,7.77-0.039,6.976,0.048,6.183
	C0.367,2.604,2.907,0,6.086,0c2.073,0.022,3.926,1.104,4.963,2.828C12.13,1.1,14.024,0.018,16.113,0
	c3.185,0,5.725,2.604,6.042,6.193c0.086,0.783,0.021,1.576-0.196,2.347c-0.48,1.972-1.544,3.746-3.07,5.111L11.034,20.658z M6.081,1
	C3.437,1,1.316,3.221,1.043,6.282C0.969,6.957,1.024,7.623,1.206,8.27c0.441,1.808,1.399,3.405,2.774,4.635l7.06,6.407l7.182-6.407
	c1.375-1.229,2.332-2.827,2.77-4.619c0.187-0.664,0.241-1.329,0.168-1.995C20.887,3.221,18.767,1,16.117,1
	c-2.031,0.018-3.845,1.247-4.616,3.131l-0.478,1.166l-0.452-1.176C9.851,2.247,8.088,1.022,6.081,1z"/>
</svg>
