<svg xmlns="http://www.w3.org/2000/svg" id="placeholder_1_" width="18.298" height="26.023" data-name="placeholder (1)" viewBox="0 0 18.298 26.023">
    <defs>
        <style>
            .cls-1{fill:#969cae}
        </style>
    </defs>
    <g id="Group_100" data-name="Group 100">
        <g id="Group_99" data-name="Group 99">
            <path id="Path_70" d="M85.149 0a9.151 9.151 0 0 0-7.783 13.96l7.262 11.7a.762.762 0 0 0 .648.36h.006a.762.762 0 0 0 .648-.371l7.077-11.817A9.151 9.151 0 0 0 85.149 0zM91.7 13.053L85.264 23.8l-6.6-10.64a7.629 7.629 0 1 1 13.037-.1z" class="cls-1" data-name="Path 70" transform="translate(-76)"/>
        </g>
    </g>
    <g id="Group_102" data-name="Group 102" transform="translate(4.574 4.574)">
        <g id="Group_101" data-name="Group 101">
            <path id="Path_71" d="M170.574 90a4.574 4.574 0 1 0 4.574 4.574A4.58 4.58 0 0 0 170.574 90zm0 7.634a3.06 3.06 0 1 1 3.055-3.06 3.062 3.062 0 0 1-3.055 3.06z" class="cls-1" data-name="Path 71" transform="translate(-166 -90)"/>
        </g>
    </g>
</svg>
