<?xml version="1.0" encoding="utf-8"?>
<!-- Generator: Adobe Illustrator 17.0.0, SVG Export Plug-In . SVG Version: 6.00 Build 0)  -->
<!DOCTYPE svg PUBLIC "-//W3C//DTD SVG 1.1//EN" "http://www.w3.org/Graphics/SVG/1.1/DTD/svg11.dtd">
<svg version="1.1" id="Layer_1" xmlns="http://www.w3.org/2000/svg" xmlns:xlink="http://www.w3.org/1999/xlink" x="0px" y="0px"
	 width="19.25px" height="19.25px" viewBox="0 0 19.25 19.25" enable-background="new 0 0 19.25 19.25" xml:space="preserve">
<g id="email">
	<path id="Rectangle_970" fill="#FFFFFF" d="M3.237,2.93h12.9v11.36h-12.9V2.93z"/>
	<g id="Group_5577">
		<path id="Path_3165" fill="#505050" d="M9.625,0C4.309,0,0,4.309,0,9.625s4.309,9.625,9.625,9.625s9.625-4.309,9.625-9.625l0,0
			C19.25,4.309,14.941,0,9.625,0z M9.625,3.381l5.7,3.552H3.929L9.625,3.381z M15.391,12.6c0,0.569-0.462,1.031-1.031,1.031l0,0
			H4.89c-0.569,0-1.031-0.462-1.031-1.031V7.158c0-0.059,0.006-0.118,0.016-0.176l5.442,3.393l0.021,0.011l0.022,0.011
			c0.038,0.02,0.078,0.035,0.119,0.046h0.013c0.044,0.011,0.089,0.017,0.134,0.017c0.045,0,0.09-0.006,0.134-0.017h0.013
			c0.041-0.011,0.081-0.026,0.119-0.046l0.022-0.011l0.021-0.011l5.442-3.393c0.01,0.058,0.016,0.117,0.016,0.176V12.6H15.391z"/>
	</g>
</g>
</svg>
