<svg xmlns="http://www.w3.org/2000/svg" width="17.988" height="16.494" viewBox="0 0 17.988 16.494">
    <defs>
        <style>
            .cls-1{fill:#fff}
        </style>
    </defs>
    <g id="shopping-basket">
        <g id="Group_14" data-name="Group 14">
            <path id="Path_5" d="M289.374 24.571h1.577l-2.338-4.01a.68.68 0 0 0-1.174.687z" class="cls-1" data-name="Path 5" transform="translate(-276.733 -20.222)"/>
            <path id="Path_6" d="M105.812 21.29a.68.68 0 0 0-1.174-.687l-2.338 4.014h1.577z" class="cls-1" data-name="Path 6" transform="translate(-98.522 -20.265)"/>
            <path id="Path_7" d="M16.828 171.278H1.156A1.155 1.155 0 0 0 0 172.434v1.281a1.155 1.155 0 0 0 1.156 1.156h.362l1.115 6.045a1.584 1.584 0 0 0 1.467 1.278h9.557a1.584 1.584 0 0 0 1.466-1.278l1.123-6.049h.587a1.155 1.155 0 0 0 1.156-1.156v-1.281a1.16 1.16 0 0 0-1.161-1.152zm-10.447 6.041v2.607a.654.654 0 0 1-1.307 0v-3.656a.654.654 0 1 1 1.307 0zm2.1 0v2.607a.654.654 0 0 1-1.307 0v-3.656a.652.652 0 0 1 .654-.654.667.667 0 0 1 .654.654zm2.109 1.514v1.093a.654.654 0 0 1-1.307 0v-3.656a.667.667 0 0 1 .654-.654.652.652 0 0 1 .654.654zm2.1 0v1.093a.654.654 0 0 1-1.307 0v-3.656a.654.654 0 1 1 1.307 0z" class="cls-1" data-name="Path 7" transform="translate(0 -165.7)"/>
        </g>
    </g>
</svg>
