<svg xmlns="http://www.w3.org/2000/svg" width="16.063" height="16.063" viewBox="0 0 16.063 16.063">
    <defs>
        <style>
            .cls-1{fill:#fff}
        </style>
    </defs>
    <g id="telephone-symbol-button">
        <path id="Path_3164" d="M15.183.884A2.9 2.9 0 0 0 13.055 0H3.015A2.9 2.9 0 0 0 .887.884 2.9 2.9 0 0 0 0 3.012v10.04a2.9 2.9 0 0 0 .887 2.128 2.9 2.9 0 0 0 2.128.884h10.04a3.017 3.017 0 0 0 3.012-3.012V3.012a2.9 2.9 0 0 0-.884-2.128zm-2.024 11.309a1.888 1.888 0 0 1-.988.837 3.319 3.319 0 0 1-1.365.356 2.588 2.588 0 0 1-.356-.026q-.188-.026-.319-.052a3.41 3.41 0 0 1-.345-.094q-.215-.068-.308-.1l-.345-.131q-.251-.094-.314-.115A9.373 9.373 0 0 1 5.467 10.6 9.374 9.374 0 0 1 3.2 7.247q-.021-.063-.115-.314t-.131-.345q-.036-.094-.1-.308a3.439 3.439 0 0 1-.094-.345q-.026-.131-.052-.319a2.592 2.592 0 0 1-.028-.356 3.319 3.319 0 0 1 .356-1.36 1.887 1.887 0 0 1 .837-.988 2.755 2.755 0 0 1 1.056-.23.486.486 0 0 1 .171.018.616.616 0 0 1 .173.188 4.247 4.247 0 0 1 .261.424l.277.5q.136.244.261.476.125.235.157.3t.136.2a1.6 1.6 0 0 1 .157.261.532.532 0 0 1 .052.22.622.622 0 0 1-.214.382 3.568 3.568 0 0 1-.471.413 4.082 4.082 0 0 0-.471.4.586.586 0 0 0-.214.35.51.51 0 0 0 .037.173 1.618 1.618 0 0 0 .068.162q.031.063.1.178t.089.146A7.988 7.988 0 0 0 6.816 9.25 7.982 7.982 0 0 0 8.6 10.573q.031.021.147.089c.077.045.136.078.178.1a1.592 1.592 0 0 0 .162.068.514.514 0 0 0 .173.037q.167 0 .46-.345t.6-.685q.3-.34.491-.34a.533.533 0 0 1 .22.052 1.608 1.608 0 0 1 .261.157c.1.07.164.115.2.136l.554.3q.554.293.926.518a1.21 1.21 0 0 1 .4.308.49.49 0 0 1 .021.167 2.748 2.748 0 0 1-.234 1.058z" class="cls-1" data-name="Path 3164" transform="translate(-.003)"/>
    </g>
</svg>
