<svg xmlns="http://www.w3.org/2000/svg" width="20.483" height="16.638" viewBox="0 0 20.483 16.638">
    <defs>
        <style>
            .cls-1{fill:#cd8842}
        </style>
    </defs>
    <g id="twitter-logo-silhouette">
        <g id="Group_2" data-name="Group 2">
            <path id="Path_1" d="M20.484 59.409a8.391 8.391 0 0 1-2.413.662 4.219 4.219 0 0 0 1.847-2.323 8.47 8.47 0 0 1-2.67 1.02 4.205 4.205 0 0 0-7.16 3.831 11.929 11.929 0 0 1-8.66-4.39 4.207 4.207 0 0 0 1.3 5.609 4.2 4.2 0 0 1-1.9-.527v.052a4.206 4.206 0 0 0 3.37 4.12 4.256 4.256 0 0 1-1.107.147 4.034 4.034 0 0 1-.791-.078 4.2 4.2 0 0 0 3.921 2.918A8.43 8.43 0 0 1 1 72.246a8.928 8.928 0 0 1-1-.058 11.877 11.877 0 0 0 6.441 1.89A11.872 11.872 0 0 0 18.4 62.124l-.014-.544a8.391 8.391 0 0 0 2.098-2.171z" class="cls-1" data-name="Path 1" transform="translate(-.001 -57.441)"/>
        </g>
    </g>
</svg>
