<?xml version="1.0" encoding="utf-8"?>
<!-- Generator: Adobe Illustrator 17.0.0, SVG Export Plug-In . SVG Version: 6.00 Build 0)  -->
<!DOCTYPE svg PUBLIC "-//W3C//DTD SVG 1.1//EN" "http://www.w3.org/Graphics/SVG/1.1/DTD/svg11.dtd">
<svg version="1.1" id="Layer_1" xmlns="http://www.w3.org/2000/svg" xmlns:xlink="http://www.w3.org/1999/xlink" x="0px" y="0px"
	 width="409.635px" height="409.635px" viewBox="0 0 409.635 409.635" enable-background="new 0 0 409.635 409.635"
	 xml:space="preserve">
<g>
	<path d="M339.687,50.781c-30.569-26.994-66.27-43.128-106.659-48.827c-5.388-0.76-10.806-1.308-16.21-1.954
		c-8.001,0-16.001,0-24.002,0c-7.77,1.038-15.588,1.807-23.303,3.157C122.379,11.41,82.964,33.686,51.248,69.367
		c-27.38,30.802-43.643,66.875-49.37,107.684c-0.735,5.24-1.258,10.51-1.878,15.766c0,8.001,0,16.001,0,24.002
		c1.035,7.75,1.805,15.546,3.148,23.243c8.279,47.441,30.794,86.999,66.799,118.792c30.569,26.994,66.27,43.128,106.659,48.827
		c5.388,0.76,10.806,1.308,16.21,1.954c8.001,0,16.001,0,24.002,0c7.77-1.038,15.588-1.806,23.303-3.157
		c47.134-8.254,86.551-30.528,118.265-66.21c27.377-30.802,43.646-66.874,49.37-107.684c0.735-5.24,1.257-10.51,1.878-15.766
		c0-8.001,0-16.001,0-24.002c-1.035-7.75-1.805-15.546-3.148-23.243C398.208,122.133,375.693,82.575,339.687,50.781z
		 M328.261,336.76c-27.705,25.589-60.129,41.418-97.445,46.949c-8.544,1.266-17.228,1.594-22.463,2.056
		c-50.88-0.739-92.165-16.919-126.999-49.242c-0.867-0.805-1.412-2.894-1.015-3.987c13.516-37.223,38.45-63.958,75.162-78.695
		c39.951-16.037,79.141-12.872,116.366,8.72c27.652,16.039,46.595,39.691,57.518,69.76
		C330.079,334.233,329.778,335.358,328.261,336.76z M144.825,160.133c-0.072-33.007,26.951-60.096,59.968-60.111
		c33.003-0.016,60.067,27.074,60.017,60.074c-0.05,32.866-26.897,59.777-59.768,59.911
		C172.051,220.141,144.897,193.142,144.825,160.133z M348.178,314.385c-8.919-20.43-21.49-38.101-37.744-53.096
		c-16.169-14.916-34.81-25.757-56.08-33.222c24.488-19.636,36.453-44.623,34-75.595c-1.833-23.151-12.32-42.246-30.096-57.14
		c-35.064-29.38-86.733-24.856-117.333,10.339c-29.429,33.848-27.876,89.817,14.361,122.311
		c-43.577,15.73-74.77,44.383-93.851,86.187c-48.977-61.174-55.334-164.556,14.773-236.3c67.562-69.14,179.939-71.948,250.769-6.231
		C400.932,140.252,401.141,246.776,348.178,314.385z"/>
</g>
</svg>
